<?xml version="1.0" encoding="UTF-8" standalone="no"?>
<svg width="317.5mm" height="39.6875mm"
 xmlns="http://www.w3.org/2000/svg" xmlns:xlink="http://www.w3.org/1999/xlink"  version="1.2" baseProfile="tiny">
<desc>Created by HiQPdf</desc>
<defs>
</defs>
<g fill="none" stroke="black" stroke-width="1" fill-rule="evenodd" stroke-linecap="square" stroke-linejoin="bevel" >

<g fill="#000000" fill-opacity="1" stroke="#000000" stroke-opacity="1" stroke-width="1" stroke-linecap="butt" stroke-linejoin="miter" stroke-miterlimit="2" transform="matrix(1,0,0,1,0,0)"
>
</g>

<g fill="#000000" fill-opacity="1" stroke="#000000" stroke-opacity="1" stroke-width="1" stroke-linecap="butt" stroke-linejoin="miter" stroke-miterlimit="2" transform="matrix(1,0,0,1,0,0)"
>
</g>

<g fill="#000000" fill-opacity="1" stroke="#000000" stroke-opacity="1" stroke-width="1" stroke-linecap="butt" stroke-linejoin="miter" stroke-miterlimit="2" transform="matrix(1,0,0,1,0,0)"
>
</g>

<g fill="#d4d4d4" fill-opacity="1" stroke="none" transform="matrix(1,0,0,1,0,0)"
>
<rect x="8" y="8" width="225" height="1"/>
</g>

<g fill="#2c2c2c" fill-opacity="1" stroke="none" transform="matrix(1,0,0,1,0,0)"
>
<rect x="8" y="141" width="225" height="1"/>
</g>

<g fill="#d4d4d4" fill-opacity="1" stroke="none" transform="matrix(1,0,0,1,0,0)"
>
<path vector-effect="none" fill-rule="nonzero" d="M8,8 L8,142 L9,141 L9,8 L8,8"/>
</g>

<g fill="#2c2c2c" fill-opacity="1" stroke="none" transform="matrix(1,0,0,1,0,0)"
>
<path vector-effect="none" fill-rule="nonzero" d="M232,9 L232,142 L233,142 L233,8 L232,9"/>
</g>

<g fill="#2c2c2c" fill-opacity="1" stroke="none" transform="matrix(1,0,0,1,0,0)"
>
<rect x="11" y="11" width="62" height="1"/>
</g>

<g fill="#d4d4d4" fill-opacity="1" stroke="none" transform="matrix(1,0,0,1,0,0)"
>
<rect x="11" y="34" width="62" height="1"/>
</g>

<g fill="#2c2c2c" fill-opacity="1" stroke="none" transform="matrix(1,0,0,1,0,0)"
>
<path vector-effect="none" fill-rule="nonzero" d="M11,11 L11,35 L12,34 L12,11 L11,11"/>
</g>

<g fill="#d4d4d4" fill-opacity="1" stroke="none" transform="matrix(1,0,0,1,0,0)"
>
<path vector-effect="none" fill-rule="nonzero" d="M72,12 L72,35 L73,35 L73,11 L72,12"/>
</g>

<g fill="#2c2c2c" fill-opacity="1" stroke="none" transform="matrix(1,0,0,1,0,0)"
>
<rect x="75" y="11" width="31" height="1"/>
</g>

<g fill="#d4d4d4" fill-opacity="1" stroke="none" transform="matrix(1,0,0,1,0,0)"
>
<rect x="75" y="34" width="31" height="1"/>
</g>

<g fill="#2c2c2c" fill-opacity="1" stroke="none" transform="matrix(1,0,0,1,0,0)"
>
<path vector-effect="none" fill-rule="nonzero" d="M75,11 L75,35 L76,34 L76,11 L75,11"/>
</g>

<g fill="#d4d4d4" fill-opacity="1" stroke="none" transform="matrix(1,0,0,1,0,0)"
>
<path vector-effect="none" fill-rule="nonzero" d="M105,12 L105,35 L106,35 L106,11 L105,12"/>
</g>

<g fill="#2c2c2c" fill-opacity="1" stroke="none" transform="matrix(1,0,0,1,0,0)"
>
<rect x="108" y="11" width="27" height="1"/>
</g>

<g fill="#d4d4d4" fill-opacity="1" stroke="none" transform="matrix(1,0,0,1,0,0)"
>
<rect x="108" y="34" width="27" height="1"/>
</g>

<g fill="#2c2c2c" fill-opacity="1" stroke="none" transform="matrix(1,0,0,1,0,0)"
>
<path vector-effect="none" fill-rule="nonzero" d="M108,11 L108,35 L109,34 L109,11 L108,11"/>
</g>

<g fill="#d4d4d4" fill-opacity="1" stroke="none" transform="matrix(1,0,0,1,0,0)"
>
<path vector-effect="none" fill-rule="nonzero" d="M134,12 L134,35 L135,35 L135,11 L134,12"/>
</g>

<g fill="#2c2c2c" fill-opacity="1" stroke="none" transform="matrix(1,0,0,1,0,0)"
>
<rect x="137" y="11" width="33" height="1"/>
</g>

<g fill="#d4d4d4" fill-opacity="1" stroke="none" transform="matrix(1,0,0,1,0,0)"
>
<rect x="137" y="34" width="33" height="1"/>
</g>

<g fill="#2c2c2c" fill-opacity="1" stroke="none" transform="matrix(1,0,0,1,0,0)"
>
<path vector-effect="none" fill-rule="nonzero" d="M137,11 L137,35 L138,34 L138,11 L137,11"/>
</g>

<g fill="#d4d4d4" fill-opacity="1" stroke="none" transform="matrix(1,0,0,1,0,0)"
>
<path vector-effect="none" fill-rule="nonzero" d="M169,12 L169,35 L170,35 L170,11 L169,12"/>
</g>

<g fill="#2c2c2c" fill-opacity="1" stroke="none" transform="matrix(1,0,0,1,0,0)"
>
<rect x="172" y="11" width="25" height="1"/>
</g>

<g fill="#d4d4d4" fill-opacity="1" stroke="none" transform="matrix(1,0,0,1,0,0)"
>
<rect x="172" y="34" width="25" height="1"/>
</g>

<g fill="#2c2c2c" fill-opacity="1" stroke="none" transform="matrix(1,0,0,1,0,0)"
>
<path vector-effect="none" fill-rule="nonzero" d="M172,11 L172,35 L173,34 L173,11 L172,11"/>
</g>

<g fill="#d4d4d4" fill-opacity="1" stroke="none" transform="matrix(1,0,0,1,0,0)"
>
<path vector-effect="none" fill-rule="nonzero" d="M196,12 L196,35 L197,35 L197,11 L196,12"/>
</g>

<g fill="#2c2c2c" fill-opacity="1" stroke="none" transform="matrix(1,0,0,1,0,0)"
>
<rect x="199" y="11" width="31" height="1"/>
</g>

<g fill="#d4d4d4" fill-opacity="1" stroke="none" transform="matrix(1,0,0,1,0,0)"
>
<rect x="199" y="34" width="31" height="1"/>
</g>

<g fill="#2c2c2c" fill-opacity="1" stroke="none" transform="matrix(1,0,0,1,0,0)"
>
<path vector-effect="none" fill-rule="nonzero" d="M199,11 L199,35 L200,34 L200,11 L199,11"/>
</g>

<g fill="#d4d4d4" fill-opacity="1" stroke="none" transform="matrix(1,0,0,1,0,0)"
>
<path vector-effect="none" fill-rule="nonzero" d="M229,12 L229,35 L230,35 L230,11 L229,12"/>
</g>

<g fill="#2c2c2c" fill-opacity="1" stroke="none" transform="matrix(1,0,0,1,0,0)"
>
<rect x="11" y="37" width="62" height="1"/>
</g>

<g fill="#d4d4d4" fill-opacity="1" stroke="none" transform="matrix(1,0,0,1,0,0)"
>
<rect x="11" y="60" width="62" height="1"/>
</g>

<g fill="#2c2c2c" fill-opacity="1" stroke="none" transform="matrix(1,0,0,1,0,0)"
>
<path vector-effect="none" fill-rule="nonzero" d="M11,37 L11,61 L12,60 L12,37 L11,37"/>
</g>

<g fill="#d4d4d4" fill-opacity="1" stroke="none" transform="matrix(1,0,0,1,0,0)"
>
<path vector-effect="none" fill-rule="nonzero" d="M72,38 L72,61 L73,61 L73,37 L72,38"/>
</g>

<g fill="#0b8c00" fill-opacity="1" stroke="none" transform="matrix(1,0,0,1,0,0)"
>
<rect x="75" y="37" width="31" height="24"/>
</g>

<g fill="#2c2c2c" fill-opacity="1" stroke="none" transform="matrix(1,0,0,1,0,0)"
>
<rect x="75" y="37" width="31" height="1"/>
</g>

<g fill="#d4d4d4" fill-opacity="1" stroke="none" transform="matrix(1,0,0,1,0,0)"
>
<rect x="75" y="60" width="31" height="1"/>
</g>

<g fill="#2c2c2c" fill-opacity="1" stroke="none" transform="matrix(1,0,0,1,0,0)"
>
<path vector-effect="none" fill-rule="nonzero" d="M75,37 L75,61 L76,60 L76,37 L75,37"/>
</g>

<g fill="#d4d4d4" fill-opacity="1" stroke="none" transform="matrix(1,0,0,1,0,0)"
>
<path vector-effect="none" fill-rule="nonzero" d="M105,38 L105,61 L106,61 L106,37 L105,38"/>
</g>

<g fill="#8c0000" fill-opacity="1" stroke="none" transform="matrix(1,0,0,1,0,0)"
>
<rect x="108" y="37" width="27" height="24"/>
</g>

<g fill="#2c2c2c" fill-opacity="1" stroke="none" transform="matrix(1,0,0,1,0,0)"
>
<rect x="108" y="37" width="27" height="1"/>
</g>

<g fill="#d4d4d4" fill-opacity="1" stroke="none" transform="matrix(1,0,0,1,0,0)"
>
<rect x="108" y="60" width="27" height="1"/>
</g>

<g fill="#2c2c2c" fill-opacity="1" stroke="none" transform="matrix(1,0,0,1,0,0)"
>
<path vector-effect="none" fill-rule="nonzero" d="M108,37 L108,61 L109,60 L109,37 L108,37"/>
</g>

<g fill="#d4d4d4" fill-opacity="1" stroke="none" transform="matrix(1,0,0,1,0,0)"
>
<path vector-effect="none" fill-rule="nonzero" d="M134,38 L134,61 L135,61 L135,37 L134,38"/>
</g>

<g fill="#8c8c2f" fill-opacity="1" stroke="none" transform="matrix(1,0,0,1,0,0)"
>
<rect x="137" y="37" width="33" height="24"/>
</g>

<g fill="#2c2c2c" fill-opacity="1" stroke="none" transform="matrix(1,0,0,1,0,0)"
>
<rect x="137" y="37" width="33" height="1"/>
</g>

<g fill="#d4d4d4" fill-opacity="1" stroke="none" transform="matrix(1,0,0,1,0,0)"
>
<rect x="137" y="60" width="33" height="1"/>
</g>

<g fill="#2c2c2c" fill-opacity="1" stroke="none" transform="matrix(1,0,0,1,0,0)"
>
<path vector-effect="none" fill-rule="nonzero" d="M137,37 L137,61 L138,60 L138,37 L137,37"/>
</g>

<g fill="#d4d4d4" fill-opacity="1" stroke="none" transform="matrix(1,0,0,1,0,0)"
>
<path vector-effect="none" fill-rule="nonzero" d="M169,38 L169,61 L170,61 L170,37 L169,38"/>
</g>

<g fill="#8c8c2f" fill-opacity="1" stroke="none" transform="matrix(1,0,0,1,0,0)"
>
<rect x="172" y="37" width="25" height="24"/>
</g>

<g fill="#2c2c2c" fill-opacity="1" stroke="none" transform="matrix(1,0,0,1,0,0)"
>
<rect x="172" y="37" width="25" height="1"/>
</g>

<g fill="#d4d4d4" fill-opacity="1" stroke="none" transform="matrix(1,0,0,1,0,0)"
>
<rect x="172" y="60" width="25" height="1"/>
</g>

<g fill="#2c2c2c" fill-opacity="1" stroke="none" transform="matrix(1,0,0,1,0,0)"
>
<path vector-effect="none" fill-rule="nonzero" d="M172,37 L172,61 L173,60 L173,37 L172,37"/>
</g>

<g fill="#d4d4d4" fill-opacity="1" stroke="none" transform="matrix(1,0,0,1,0,0)"
>
<path vector-effect="none" fill-rule="nonzero" d="M196,38 L196,61 L197,61 L197,37 L196,38"/>
</g>

<g fill="#8c8c2f" fill-opacity="1" stroke="none" transform="matrix(1,0,0,1,0,0)"
>
<rect x="199" y="37" width="31" height="24"/>
</g>

<g fill="#2c2c2c" fill-opacity="1" stroke="none" transform="matrix(1,0,0,1,0,0)"
>
<rect x="199" y="37" width="31" height="1"/>
</g>

<g fill="#d4d4d4" fill-opacity="1" stroke="none" transform="matrix(1,0,0,1,0,0)"
>
<rect x="199" y="60" width="31" height="1"/>
</g>

<g fill="#2c2c2c" fill-opacity="1" stroke="none" transform="matrix(1,0,0,1,0,0)"
>
<path vector-effect="none" fill-rule="nonzero" d="M199,37 L199,61 L200,60 L200,37 L199,37"/>
</g>

<g fill="#d4d4d4" fill-opacity="1" stroke="none" transform="matrix(1,0,0,1,0,0)"
>
<path vector-effect="none" fill-rule="nonzero" d="M229,38 L229,61 L230,61 L230,37 L229,38"/>
</g>

<g fill="#2c2c2c" fill-opacity="1" stroke="none" transform="matrix(1,0,0,1,0,0)"
>
<rect x="11" y="63" width="62" height="1"/>
</g>

<g fill="#d4d4d4" fill-opacity="1" stroke="none" transform="matrix(1,0,0,1,0,0)"
>
<rect x="11" y="86" width="62" height="1"/>
</g>

<g fill="#2c2c2c" fill-opacity="1" stroke="none" transform="matrix(1,0,0,1,0,0)"
>
<path vector-effect="none" fill-rule="nonzero" d="M11,63 L11,87 L12,86 L12,63 L11,63"/>
</g>

<g fill="#d4d4d4" fill-opacity="1" stroke="none" transform="matrix(1,0,0,1,0,0)"
>
<path vector-effect="none" fill-rule="nonzero" d="M72,64 L72,87 L73,87 L73,63 L72,64"/>
</g>

<g fill="#8c8c2f" fill-opacity="1" stroke="none" transform="matrix(1,0,0,1,0,0)"
>
<rect x="75" y="63" width="31" height="24"/>
</g>

<g fill="#2c2c2c" fill-opacity="1" stroke="none" transform="matrix(1,0,0,1,0,0)"
>
<rect x="75" y="63" width="31" height="1"/>
</g>

<g fill="#d4d4d4" fill-opacity="1" stroke="none" transform="matrix(1,0,0,1,0,0)"
>
<rect x="75" y="86" width="31" height="1"/>
</g>

<g fill="#2c2c2c" fill-opacity="1" stroke="none" transform="matrix(1,0,0,1,0,0)"
>
<path vector-effect="none" fill-rule="nonzero" d="M75,63 L75,87 L76,86 L76,63 L75,63"/>
</g>

<g fill="#d4d4d4" fill-opacity="1" stroke="none" transform="matrix(1,0,0,1,0,0)"
>
<path vector-effect="none" fill-rule="nonzero" d="M105,64 L105,87 L106,87 L106,63 L105,64"/>
</g>

<g fill="#8c0000" fill-opacity="1" stroke="none" transform="matrix(1,0,0,1,0,0)"
>
<rect x="108" y="63" width="27" height="24"/>
</g>

<g fill="#2c2c2c" fill-opacity="1" stroke="none" transform="matrix(1,0,0,1,0,0)"
>
<rect x="108" y="63" width="27" height="1"/>
</g>

<g fill="#d4d4d4" fill-opacity="1" stroke="none" transform="matrix(1,0,0,1,0,0)"
>
<rect x="108" y="86" width="27" height="1"/>
</g>

<g fill="#2c2c2c" fill-opacity="1" stroke="none" transform="matrix(1,0,0,1,0,0)"
>
<path vector-effect="none" fill-rule="nonzero" d="M108,63 L108,87 L109,86 L109,63 L108,63"/>
</g>

<g fill="#d4d4d4" fill-opacity="1" stroke="none" transform="matrix(1,0,0,1,0,0)"
>
<path vector-effect="none" fill-rule="nonzero" d="M134,64 L134,87 L135,87 L135,63 L134,64"/>
</g>

<g fill="#588c00" fill-opacity="1" stroke="none" transform="matrix(1,0,0,1,0,0)"
>
<rect x="137" y="63" width="33" height="24"/>
</g>

<g fill="#2c2c2c" fill-opacity="1" stroke="none" transform="matrix(1,0,0,1,0,0)"
>
<rect x="137" y="63" width="33" height="1"/>
</g>

<g fill="#d4d4d4" fill-opacity="1" stroke="none" transform="matrix(1,0,0,1,0,0)"
>
<rect x="137" y="86" width="33" height="1"/>
</g>

<g fill="#2c2c2c" fill-opacity="1" stroke="none" transform="matrix(1,0,0,1,0,0)"
>
<path vector-effect="none" fill-rule="nonzero" d="M137,63 L137,87 L138,86 L138,63 L137,63"/>
</g>

<g fill="#d4d4d4" fill-opacity="1" stroke="none" transform="matrix(1,0,0,1,0,0)"
>
<path vector-effect="none" fill-rule="nonzero" d="M169,64 L169,87 L170,87 L170,63 L169,64"/>
</g>

<g fill="#588c00" fill-opacity="1" stroke="none" transform="matrix(1,0,0,1,0,0)"
>
<rect x="172" y="63" width="25" height="24"/>
</g>

<g fill="#2c2c2c" fill-opacity="1" stroke="none" transform="matrix(1,0,0,1,0,0)"
>
<rect x="172" y="63" width="25" height="1"/>
</g>

<g fill="#d4d4d4" fill-opacity="1" stroke="none" transform="matrix(1,0,0,1,0,0)"
>
<rect x="172" y="86" width="25" height="1"/>
</g>

<g fill="#2c2c2c" fill-opacity="1" stroke="none" transform="matrix(1,0,0,1,0,0)"
>
<path vector-effect="none" fill-rule="nonzero" d="M172,63 L172,87 L173,86 L173,63 L172,63"/>
</g>

<g fill="#d4d4d4" fill-opacity="1" stroke="none" transform="matrix(1,0,0,1,0,0)"
>
<path vector-effect="none" fill-rule="nonzero" d="M196,64 L196,87 L197,87 L197,63 L196,64"/>
</g>

<g fill="#8c8c2f" fill-opacity="1" stroke="none" transform="matrix(1,0,0,1,0,0)"
>
<rect x="199" y="63" width="31" height="24"/>
</g>

<g fill="#2c2c2c" fill-opacity="1" stroke="none" transform="matrix(1,0,0,1,0,0)"
>
<rect x="199" y="63" width="31" height="1"/>
</g>

<g fill="#d4d4d4" fill-opacity="1" stroke="none" transform="matrix(1,0,0,1,0,0)"
>
<rect x="199" y="86" width="31" height="1"/>
</g>

<g fill="#2c2c2c" fill-opacity="1" stroke="none" transform="matrix(1,0,0,1,0,0)"
>
<path vector-effect="none" fill-rule="nonzero" d="M199,63 L199,87 L200,86 L200,63 L199,63"/>
</g>

<g fill="#d4d4d4" fill-opacity="1" stroke="none" transform="matrix(1,0,0,1,0,0)"
>
<path vector-effect="none" fill-rule="nonzero" d="M229,64 L229,87 L230,87 L230,63 L229,64"/>
</g>

<g fill="#2c2c2c" fill-opacity="1" stroke="none" transform="matrix(1,0,0,1,0,0)"
>
<rect x="11" y="89" width="62" height="1"/>
</g>

<g fill="#d4d4d4" fill-opacity="1" stroke="none" transform="matrix(1,0,0,1,0,0)"
>
<rect x="11" y="112" width="62" height="1"/>
</g>

<g fill="#2c2c2c" fill-opacity="1" stroke="none" transform="matrix(1,0,0,1,0,0)"
>
<path vector-effect="none" fill-rule="nonzero" d="M11,89 L11,113 L12,112 L12,89 L11,89"/>
</g>

<g fill="#d4d4d4" fill-opacity="1" stroke="none" transform="matrix(1,0,0,1,0,0)"
>
<path vector-effect="none" fill-rule="nonzero" d="M72,90 L72,113 L73,113 L73,89 L72,90"/>
</g>

<g fill="#588c00" fill-opacity="1" stroke="none" transform="matrix(1,0,0,1,0,0)"
>
<rect x="75" y="89" width="31" height="24"/>
</g>

<g fill="#2c2c2c" fill-opacity="1" stroke="none" transform="matrix(1,0,0,1,0,0)"
>
<rect x="75" y="89" width="31" height="1"/>
</g>

<g fill="#d4d4d4" fill-opacity="1" stroke="none" transform="matrix(1,0,0,1,0,0)"
>
<rect x="75" y="112" width="31" height="1"/>
</g>

<g fill="#2c2c2c" fill-opacity="1" stroke="none" transform="matrix(1,0,0,1,0,0)"
>
<path vector-effect="none" fill-rule="nonzero" d="M75,89 L75,113 L76,112 L76,89 L75,89"/>
</g>

<g fill="#d4d4d4" fill-opacity="1" stroke="none" transform="matrix(1,0,0,1,0,0)"
>
<path vector-effect="none" fill-rule="nonzero" d="M105,90 L105,113 L106,113 L106,89 L105,90"/>
</g>

<g fill="#8c8c2f" fill-opacity="1" stroke="none" transform="matrix(1,0,0,1,0,0)"
>
<rect x="108" y="89" width="27" height="24"/>
</g>

<g fill="#2c2c2c" fill-opacity="1" stroke="none" transform="matrix(1,0,0,1,0,0)"
>
<rect x="108" y="89" width="27" height="1"/>
</g>

<g fill="#d4d4d4" fill-opacity="1" stroke="none" transform="matrix(1,0,0,1,0,0)"
>
<rect x="108" y="112" width="27" height="1"/>
</g>

<g fill="#2c2c2c" fill-opacity="1" stroke="none" transform="matrix(1,0,0,1,0,0)"
>
<path vector-effect="none" fill-rule="nonzero" d="M108,89 L108,113 L109,112 L109,89 L108,89"/>
</g>

<g fill="#d4d4d4" fill-opacity="1" stroke="none" transform="matrix(1,0,0,1,0,0)"
>
<path vector-effect="none" fill-rule="nonzero" d="M134,90 L134,113 L135,113 L135,89 L134,90"/>
</g>

<g fill="#8c8c2f" fill-opacity="1" stroke="none" transform="matrix(1,0,0,1,0,0)"
>
<rect x="137" y="89" width="33" height="24"/>
</g>

<g fill="#2c2c2c" fill-opacity="1" stroke="none" transform="matrix(1,0,0,1,0,0)"
>
<rect x="137" y="89" width="33" height="1"/>
</g>

<g fill="#d4d4d4" fill-opacity="1" stroke="none" transform="matrix(1,0,0,1,0,0)"
>
<rect x="137" y="112" width="33" height="1"/>
</g>

<g fill="#2c2c2c" fill-opacity="1" stroke="none" transform="matrix(1,0,0,1,0,0)"
>
<path vector-effect="none" fill-rule="nonzero" d="M137,89 L137,113 L138,112 L138,89 L137,89"/>
</g>

<g fill="#d4d4d4" fill-opacity="1" stroke="none" transform="matrix(1,0,0,1,0,0)"
>
<path vector-effect="none" fill-rule="nonzero" d="M169,90 L169,113 L170,113 L170,89 L169,90"/>
</g>

<g fill="#ad4800" fill-opacity="1" stroke="none" transform="matrix(1,0,0,1,0,0)"
>
<rect x="172" y="89" width="25" height="24"/>
</g>

<g fill="#2c2c2c" fill-opacity="1" stroke="none" transform="matrix(1,0,0,1,0,0)"
>
<rect x="172" y="89" width="25" height="1"/>
</g>

<g fill="#d4d4d4" fill-opacity="1" stroke="none" transform="matrix(1,0,0,1,0,0)"
>
<rect x="172" y="112" width="25" height="1"/>
</g>

<g fill="#2c2c2c" fill-opacity="1" stroke="none" transform="matrix(1,0,0,1,0,0)"
>
<path vector-effect="none" fill-rule="nonzero" d="M172,89 L172,113 L173,112 L173,89 L172,89"/>
</g>

<g fill="#d4d4d4" fill-opacity="1" stroke="none" transform="matrix(1,0,0,1,0,0)"
>
<path vector-effect="none" fill-rule="nonzero" d="M196,90 L196,113 L197,113 L197,89 L196,90"/>
</g>

<g fill="#8c8c2f" fill-opacity="1" stroke="none" transform="matrix(1,0,0,1,0,0)"
>
<rect x="199" y="89" width="31" height="24"/>
</g>

<g fill="#2c2c2c" fill-opacity="1" stroke="none" transform="matrix(1,0,0,1,0,0)"
>
<rect x="199" y="89" width="31" height="1"/>
</g>

<g fill="#d4d4d4" fill-opacity="1" stroke="none" transform="matrix(1,0,0,1,0,0)"
>
<rect x="199" y="112" width="31" height="1"/>
</g>

<g fill="#2c2c2c" fill-opacity="1" stroke="none" transform="matrix(1,0,0,1,0,0)"
>
<path vector-effect="none" fill-rule="nonzero" d="M199,89 L199,113 L200,112 L200,89 L199,89"/>
</g>

<g fill="#d4d4d4" fill-opacity="1" stroke="none" transform="matrix(1,0,0,1,0,0)"
>
<path vector-effect="none" fill-rule="nonzero" d="M229,90 L229,113 L230,113 L230,89 L229,90"/>
</g>

<g fill="#2c2c2c" fill-opacity="1" stroke="none" transform="matrix(1,0,0,1,0,0)"
>
<rect x="11" y="115" width="62" height="1"/>
</g>

<g fill="#d4d4d4" fill-opacity="1" stroke="none" transform="matrix(1,0,0,1,0,0)"
>
<rect x="11" y="138" width="62" height="1"/>
</g>

<g fill="#2c2c2c" fill-opacity="1" stroke="none" transform="matrix(1,0,0,1,0,0)"
>
<path vector-effect="none" fill-rule="nonzero" d="M11,115 L11,139 L12,138 L12,115 L11,115"/>
</g>

<g fill="#d4d4d4" fill-opacity="1" stroke="none" transform="matrix(1,0,0,1,0,0)"
>
<path vector-effect="none" fill-rule="nonzero" d="M72,116 L72,139 L73,139 L73,115 L72,116"/>
</g>

<g fill="#588c00" fill-opacity="1" stroke="none" transform="matrix(1,0,0,1,0,0)"
>
<rect x="75" y="115" width="31" height="24"/>
</g>

<g fill="#2c2c2c" fill-opacity="1" stroke="none" transform="matrix(1,0,0,1,0,0)"
>
<rect x="75" y="115" width="31" height="1"/>
</g>

<g fill="#d4d4d4" fill-opacity="1" stroke="none" transform="matrix(1,0,0,1,0,0)"
>
<rect x="75" y="138" width="31" height="1"/>
</g>

<g fill="#2c2c2c" fill-opacity="1" stroke="none" transform="matrix(1,0,0,1,0,0)"
>
<path vector-effect="none" fill-rule="nonzero" d="M75,115 L75,139 L76,138 L76,115 L75,115"/>
</g>

<g fill="#d4d4d4" fill-opacity="1" stroke="none" transform="matrix(1,0,0,1,0,0)"
>
<path vector-effect="none" fill-rule="nonzero" d="M105,116 L105,139 L106,139 L106,115 L105,116"/>
</g>

<g fill="#8c0000" fill-opacity="1" stroke="none" transform="matrix(1,0,0,1,0,0)"
>
<rect x="108" y="115" width="27" height="24"/>
</g>

<g fill="#2c2c2c" fill-opacity="1" stroke="none" transform="matrix(1,0,0,1,0,0)"
>
<rect x="108" y="115" width="27" height="1"/>
</g>

<g fill="#d4d4d4" fill-opacity="1" stroke="none" transform="matrix(1,0,0,1,0,0)"
>
<rect x="108" y="138" width="27" height="1"/>
</g>

<g fill="#2c2c2c" fill-opacity="1" stroke="none" transform="matrix(1,0,0,1,0,0)"
>
<path vector-effect="none" fill-rule="nonzero" d="M108,115 L108,139 L109,138 L109,115 L108,115"/>
</g>

<g fill="#d4d4d4" fill-opacity="1" stroke="none" transform="matrix(1,0,0,1,0,0)"
>
<path vector-effect="none" fill-rule="nonzero" d="M134,116 L134,139 L135,139 L135,115 L134,116"/>
</g>

<g fill="#0b8c00" fill-opacity="1" stroke="none" transform="matrix(1,0,0,1,0,0)"
>
<rect x="137" y="115" width="33" height="24"/>
</g>

<g fill="#2c2c2c" fill-opacity="1" stroke="none" transform="matrix(1,0,0,1,0,0)"
>
<rect x="137" y="115" width="33" height="1"/>
</g>

<g fill="#d4d4d4" fill-opacity="1" stroke="none" transform="matrix(1,0,0,1,0,0)"
>
<rect x="137" y="138" width="33" height="1"/>
</g>

<g fill="#2c2c2c" fill-opacity="1" stroke="none" transform="matrix(1,0,0,1,0,0)"
>
<path vector-effect="none" fill-rule="nonzero" d="M137,115 L137,139 L138,138 L138,115 L137,115"/>
</g>

<g fill="#d4d4d4" fill-opacity="1" stroke="none" transform="matrix(1,0,0,1,0,0)"
>
<path vector-effect="none" fill-rule="nonzero" d="M169,116 L169,139 L170,139 L170,115 L169,116"/>
</g>

<g fill="#588c00" fill-opacity="1" stroke="none" transform="matrix(1,0,0,1,0,0)"
>
<rect x="172" y="115" width="25" height="24"/>
</g>

<g fill="#2c2c2c" fill-opacity="1" stroke="none" transform="matrix(1,0,0,1,0,0)"
>
<rect x="172" y="115" width="25" height="1"/>
</g>

<g fill="#d4d4d4" fill-opacity="1" stroke="none" transform="matrix(1,0,0,1,0,0)"
>
<rect x="172" y="138" width="25" height="1"/>
</g>

<g fill="#2c2c2c" fill-opacity="1" stroke="none" transform="matrix(1,0,0,1,0,0)"
>
<path vector-effect="none" fill-rule="nonzero" d="M172,115 L172,139 L173,138 L173,115 L172,115"/>
</g>

<g fill="#d4d4d4" fill-opacity="1" stroke="none" transform="matrix(1,0,0,1,0,0)"
>
<path vector-effect="none" fill-rule="nonzero" d="M196,116 L196,139 L197,139 L197,115 L196,116"/>
</g>

<g fill="#8c0000" fill-opacity="1" stroke="none" transform="matrix(1,0,0,1,0,0)"
>
<rect x="199" y="115" width="31" height="24"/>
</g>

<g fill="#2c2c2c" fill-opacity="1" stroke="none" transform="matrix(1,0,0,1,0,0)"
>
<rect x="199" y="115" width="31" height="1"/>
</g>

<g fill="#d4d4d4" fill-opacity="1" stroke="none" transform="matrix(1,0,0,1,0,0)"
>
<rect x="199" y="138" width="31" height="1"/>
</g>

<g fill="#2c2c2c" fill-opacity="1" stroke="none" transform="matrix(1,0,0,1,0,0)"
>
<path vector-effect="none" fill-rule="nonzero" d="M199,115 L199,139 L200,138 L200,115 L199,115"/>
</g>

<g fill="#d4d4d4" fill-opacity="1" stroke="none" transform="matrix(1,0,0,1,0,0)"
>
<path vector-effect="none" fill-rule="nonzero" d="M229,116 L229,139 L230,139 L230,115 L229,116"/>
</g>

<g fill="#000000" fill-opacity="1" stroke="#000000" stroke-opacity="1" stroke-width="1" stroke-linecap="square" stroke-linejoin="bevel" transform="matrix(1,0,0,1,0,0)"
>
<text fill="#000000" fill-opacity="1" stroke="none" xml:space="preserve" x="77" y="28" font-family="Times New Roman" font-size="16" font-weight="700" font-style="normal" 
 >Des</text>
</g>

<g fill="#000000" fill-opacity="1" stroke="#000000" stroke-opacity="1" stroke-width="1" stroke-linecap="square" stroke-linejoin="bevel" transform="matrix(1,0,0,1,0,0)"
>
<text fill="#000000" fill-opacity="1" stroke="none" xml:space="preserve" x="110" y="28" font-family="Times New Roman" font-size="16" font-weight="700" font-style="normal" 
 >For</text>
</g>

<g fill="#000000" fill-opacity="1" stroke="#000000" stroke-opacity="1" stroke-width="1" stroke-linecap="square" stroke-linejoin="bevel" transform="matrix(1,0,0,1,0,0)"
>
<text fill="#000000" fill-opacity="1" stroke="none" xml:space="preserve" x="139" y="28" font-family="Times New Roman" font-size="16" font-weight="700" font-style="normal" 
 >Mnt</text>
</g>

<g fill="#000000" fill-opacity="1" stroke="#000000" stroke-opacity="1" stroke-width="1" stroke-linecap="square" stroke-linejoin="bevel" transform="matrix(1,0,0,1,0,0)"
>
<text fill="#000000" fill-opacity="1" stroke="none" xml:space="preserve" x="174" y="28" font-family="Times New Roman" font-size="16" font-weight="700" font-style="normal" 
 >Pln</text>
</g>

<g fill="#000000" fill-opacity="1" stroke="#000000" stroke-opacity="1" stroke-width="1" stroke-linecap="square" stroke-linejoin="bevel" transform="matrix(1,0,0,1,0,0)"
>
<text fill="#000000" fill-opacity="1" stroke="none" xml:space="preserve" x="201" y="28" font-family="Times New Roman" font-size="16" font-weight="700" font-style="normal" 
 >Wld</text>
</g>

<g fill="#000000" fill-opacity="1" stroke="#000000" stroke-opacity="1" stroke-width="1" stroke-linecap="square" stroke-linejoin="bevel" transform="matrix(1,0,0,1,0,0)"
>
<text fill="#000000" fill-opacity="1" stroke="none" xml:space="preserve" x="13" y="54" font-family="Times New Roman" font-size="16" font-weight="400" font-style="normal" 
 >Rome</text>
</g>

<g fill="#000000" fill-opacity="1" stroke="#000000" stroke-opacity="1" stroke-width="1" stroke-linecap="square" stroke-linejoin="bevel" transform="matrix(1,0,0,1,0,0)"
>
<text fill="#000000" fill-opacity="1" stroke="none" xml:space="preserve" x="77" y="54" font-family="Times New Roman" font-size="16" font-weight="400" font-style="normal" 
 >7</text>
</g>

<g fill="#000000" fill-opacity="1" stroke="#000000" stroke-opacity="1" stroke-width="1" stroke-linecap="square" stroke-linejoin="bevel" transform="matrix(1,0,0,1,0,0)"
>
<text fill="#000000" fill-opacity="1" stroke="none" xml:space="preserve" x="110" y="54" font-family="Times New Roman" font-size="16" font-weight="400" font-style="normal" 
 >-6</text>
</g>

<g fill="#000000" fill-opacity="1" stroke="#000000" stroke-opacity="1" stroke-width="1" stroke-linecap="square" stroke-linejoin="bevel" transform="matrix(1,0,0,1,0,0)"
>
<text fill="#000000" fill-opacity="1" stroke="none" xml:space="preserve" x="139" y="54" font-family="Times New Roman" font-size="16" font-weight="400" font-style="normal" 
 >0</text>
</g>

<g fill="#000000" fill-opacity="1" stroke="#000000" stroke-opacity="1" stroke-width="1" stroke-linecap="square" stroke-linejoin="bevel" transform="matrix(1,0,0,1,0,0)"
>
<text fill="#000000" fill-opacity="1" stroke="none" xml:space="preserve" x="174" y="54" font-family="Times New Roman" font-size="16" font-weight="400" font-style="normal" 
 >0</text>
</g>

<g fill="#000000" fill-opacity="1" stroke="#000000" stroke-opacity="1" stroke-width="1" stroke-linecap="square" stroke-linejoin="bevel" transform="matrix(1,0,0,1,0,0)"
>
<text fill="#000000" fill-opacity="1" stroke="none" xml:space="preserve" x="201" y="54" font-family="Times New Roman" font-size="16" font-weight="400" font-style="normal" 
 >0</text>
</g>

<g fill="#000000" fill-opacity="1" stroke="#000000" stroke-opacity="1" stroke-width="1" stroke-linecap="square" stroke-linejoin="bevel" transform="matrix(1,0,0,1,0,0)"
>
<text fill="#000000" fill-opacity="1" stroke="none" xml:space="preserve" x="13" y="80" font-family="Times New Roman" font-size="16" font-weight="400" font-style="normal" 
 >Sarmatia</text>
</g>

<g fill="#000000" fill-opacity="1" stroke="#000000" stroke-opacity="1" stroke-width="1" stroke-linecap="square" stroke-linejoin="bevel" transform="matrix(1,0,0,1,0,0)"
>
<text fill="#000000" fill-opacity="1" stroke="none" xml:space="preserve" x="77" y="80" font-family="Times New Roman" font-size="16" font-weight="400" font-style="normal" 
 >0</text>
</g>

<g fill="#000000" fill-opacity="1" stroke="#000000" stroke-opacity="1" stroke-width="1" stroke-linecap="square" stroke-linejoin="bevel" transform="matrix(1,0,0,1,0,0)"
>
<text fill="#000000" fill-opacity="1" stroke="none" xml:space="preserve" x="110" y="80" font-family="Times New Roman" font-size="16" font-weight="400" font-style="normal" 
 >-6</text>
</g>

<g fill="#000000" fill-opacity="1" stroke="#000000" stroke-opacity="1" stroke-width="1" stroke-linecap="square" stroke-linejoin="bevel" transform="matrix(1,0,0,1,0,0)"
>
<text fill="#000000" fill-opacity="1" stroke="none" xml:space="preserve" x="139" y="80" font-family="Times New Roman" font-size="16" font-weight="400" font-style="normal" 
 >3</text>
</g>

<g fill="#000000" fill-opacity="1" stroke="#000000" stroke-opacity="1" stroke-width="1" stroke-linecap="square" stroke-linejoin="bevel" transform="matrix(1,0,0,1,0,0)"
>
<text fill="#000000" fill-opacity="1" stroke="none" xml:space="preserve" x="174" y="80" font-family="Times New Roman" font-size="16" font-weight="400" font-style="normal" 
 >3</text>
</g>

<g fill="#000000" fill-opacity="1" stroke="#000000" stroke-opacity="1" stroke-width="1" stroke-linecap="square" stroke-linejoin="bevel" transform="matrix(1,0,0,1,0,0)"
>
<text fill="#000000" fill-opacity="1" stroke="none" xml:space="preserve" x="201" y="80" font-family="Times New Roman" font-size="16" font-weight="400" font-style="normal" 
 >0</text>
</g>

<g fill="#000000" fill-opacity="1" stroke="#000000" stroke-opacity="1" stroke-width="1" stroke-linecap="square" stroke-linejoin="bevel" transform="matrix(1,0,0,1,0,0)"
>
<text fill="#000000" fill-opacity="1" stroke="none" xml:space="preserve" x="13" y="106" font-family="Times New Roman" font-size="16" font-weight="400" font-style="normal" 
 >Macedon</text>
</g>

<g fill="#000000" fill-opacity="1" stroke="#000000" stroke-opacity="1" stroke-width="1" stroke-linecap="square" stroke-linejoin="bevel" transform="matrix(1,0,0,1,0,0)"
>
<text fill="#000000" fill-opacity="1" stroke="none" xml:space="preserve" x="77" y="106" font-family="Times New Roman" font-size="16" font-weight="400" font-style="normal" 
 >3</text>
</g>

<g fill="#000000" fill-opacity="1" stroke="#000000" stroke-opacity="1" stroke-width="1" stroke-linecap="square" stroke-linejoin="bevel" transform="matrix(1,0,0,1,0,0)"
>
<text fill="#000000" fill-opacity="1" stroke="none" xml:space="preserve" x="110" y="106" font-family="Times New Roman" font-size="16" font-weight="400" font-style="normal" 
 >0</text>
</g>

<g fill="#000000" fill-opacity="1" stroke="#000000" stroke-opacity="1" stroke-width="1" stroke-linecap="square" stroke-linejoin="bevel" transform="matrix(1,0,0,1,0,0)"
>
<text fill="#000000" fill-opacity="1" stroke="none" xml:space="preserve" x="139" y="106" font-family="Times New Roman" font-size="16" font-weight="400" font-style="normal" 
 >0</text>
</g>

<g fill="#000000" fill-opacity="1" stroke="#000000" stroke-opacity="1" stroke-width="1" stroke-linecap="square" stroke-linejoin="bevel" transform="matrix(1,0,0,1,0,0)"
>
<text fill="#000000" fill-opacity="1" stroke="none" xml:space="preserve" x="174" y="106" font-family="Times New Roman" font-size="16" font-weight="400" font-style="normal" 
 >-3</text>
</g>

<g fill="#000000" fill-opacity="1" stroke="#000000" stroke-opacity="1" stroke-width="1" stroke-linecap="square" stroke-linejoin="bevel" transform="matrix(1,0,0,1,0,0)"
>
<text fill="#000000" fill-opacity="1" stroke="none" xml:space="preserve" x="201" y="106" font-family="Times New Roman" font-size="16" font-weight="400" font-style="normal" 
 >0</text>
</g>

<g fill="#000000" fill-opacity="1" stroke="#000000" stroke-opacity="1" stroke-width="1" stroke-linecap="square" stroke-linejoin="bevel" transform="matrix(1,0,0,1,0,0)"
>
<text fill="#000000" fill-opacity="1" stroke="none" xml:space="preserve" x="13" y="132" font-family="Times New Roman" font-size="16" font-weight="400" font-style="normal" 
 >Goth</text>
</g>

<g fill="#000000" fill-opacity="1" stroke="#000000" stroke-opacity="1" stroke-width="1" stroke-linecap="square" stroke-linejoin="bevel" transform="matrix(1,0,0,1,0,0)"
>
<text fill="#000000" fill-opacity="1" stroke="none" xml:space="preserve" x="77" y="132" font-family="Times New Roman" font-size="16" font-weight="400" font-style="normal" 
 >3</text>
</g>

<g fill="#000000" fill-opacity="1" stroke="#000000" stroke-opacity="1" stroke-width="1" stroke-linecap="square" stroke-linejoin="bevel" transform="matrix(1,0,0,1,0,0)"
>
<text fill="#000000" fill-opacity="1" stroke="none" xml:space="preserve" x="110" y="132" font-family="Times New Roman" font-size="16" font-weight="400" font-style="normal" 
 >-6</text>
</g>

<g fill="#000000" fill-opacity="1" stroke="#000000" stroke-opacity="1" stroke-width="1" stroke-linecap="square" stroke-linejoin="bevel" transform="matrix(1,0,0,1,0,0)"
>
<text fill="#000000" fill-opacity="1" stroke="none" xml:space="preserve" x="139" y="132" font-family="Times New Roman" font-size="16" font-weight="400" font-style="normal" 
 >6</text>
</g>

<g fill="#000000" fill-opacity="1" stroke="#000000" stroke-opacity="1" stroke-width="1" stroke-linecap="square" stroke-linejoin="bevel" transform="matrix(1,0,0,1,0,0)"
>
<text fill="#000000" fill-opacity="1" stroke="none" xml:space="preserve" x="174" y="132" font-family="Times New Roman" font-size="16" font-weight="400" font-style="normal" 
 >3</text>
</g>

<g fill="#000000" fill-opacity="1" stroke="#000000" stroke-opacity="1" stroke-width="1" stroke-linecap="square" stroke-linejoin="bevel" transform="matrix(1,0,0,1,0,0)"
>
<text fill="#000000" fill-opacity="1" stroke="none" xml:space="preserve" x="201" y="132" font-family="Times New Roman" font-size="16" font-weight="400" font-style="normal" 
 >-6</text>
</g>

<g fill="#000000" fill-opacity="1" stroke="#000000" stroke-opacity="1" stroke-width="1" stroke-linecap="butt" stroke-linejoin="miter" stroke-miterlimit="2" transform="matrix(1,0,0,1,0,0)"
>
</g>

<g fill="#000000" fill-opacity="1" stroke="#000000" stroke-opacity="1" stroke-width="1" stroke-linecap="butt" stroke-linejoin="miter" stroke-miterlimit="2" transform="matrix(1,0,0,1,0,0)"
>
</g>

<g fill="#000000" fill-opacity="1" stroke="#000000" stroke-opacity="1" stroke-width="1" stroke-linecap="butt" stroke-linejoin="miter" stroke-miterlimit="2" transform="matrix(1,0,0,1,0,0)"
>
</g>
</g>
</svg>
