<?xml version="1.0" encoding="UTF-8" standalone="no"?>
<svg width="317.5mm" height="47.0958mm"
 xmlns="http://www.w3.org/2000/svg" xmlns:xlink="http://www.w3.org/1999/xlink"  version="1.2" baseProfile="tiny">
<desc>Created by HiQPdf</desc>
<defs>
</defs>
<g fill="none" stroke="black" stroke-width="1" fill-rule="evenodd" stroke-linecap="square" stroke-linejoin="bevel" >

<g fill="#000000" fill-opacity="1" stroke="#000000" stroke-opacity="1" stroke-width="1" stroke-linecap="square" stroke-linejoin="miter" stroke-miterlimit="2" transform="matrix(1,0,0,1,0,0)"
>
</g>

<g fill="#000000" fill-opacity="1" stroke="#000000" stroke-opacity="1" stroke-width="1" stroke-linecap="square" stroke-linejoin="miter" stroke-miterlimit="2" transform="matrix(1,0,0,1,0,0)"
>
</g>

<g fill="#000000" fill-opacity="1" stroke="#000000" stroke-opacity="1" stroke-width="1" stroke-linecap="square" stroke-linejoin="miter" stroke-miterlimit="2" transform="matrix(1,0,0,1,0,0)"
>
</g>

<g fill="#2f4f4f" fill-opacity="1" stroke="none" transform="matrix(1,0,0,1,0,0)"
>
<path vector-effect="none" fill-rule="evenodd" d="M9,9 L91,9 L91,41 L9,41 L9,9"/>
</g>

<g fill="#2f4f4f" fill-opacity="1" stroke="none" transform="matrix(1,0,0,1,0,0)"
>
<path vector-effect="none" fill-rule="evenodd" d="M91,9 L133,9 L133,41 L91,41 L91,9"/>
</g>

<g fill="#2f4f4f" fill-opacity="1" stroke="none" transform="matrix(1,0,0,1,0,0)"
>
<path vector-effect="none" fill-rule="evenodd" d="M133,9 L171,9 L171,41 L133,41 L133,9"/>
</g>

<g fill="#2f4f4f" fill-opacity="1" stroke="none" transform="matrix(1,0,0,1,0,0)"
>
<path vector-effect="none" fill-rule="evenodd" d="M171,9 L211,9 L211,41 L171,41 L171,9"/>
</g>

<g fill="#2f4f4f" fill-opacity="1" stroke="none" transform="matrix(1,0,0,1,0,0)"
>
<path vector-effect="none" fill-rule="evenodd" d="M211,9 L248,9 L248,41 L211,41 L211,9"/>
</g>

<g fill="#2f4f4f" fill-opacity="1" stroke="none" transform="matrix(1,0,0,1,0,0)"
>
<path vector-effect="none" fill-rule="evenodd" d="M248,9 L289,9 L289,41 L248,41 L248,9"/>
</g>

<g fill="#2f4f4f" fill-opacity="1" stroke="none" transform="matrix(1,0,0,1,0,0)"
>
<path vector-effect="none" fill-rule="evenodd" d="M9,41 L91,41 L91,73 L9,73 L9,41"/>
</g>

<g fill="#0b8c00" fill-opacity="1" stroke="none" transform="matrix(1,0,0,1,0,0)"
>
<path vector-effect="none" fill-rule="evenodd" d="M91,41 L133,41 L133,73 L91,73 L91,41"/>
</g>

<g fill="#8c0000" fill-opacity="1" stroke="none" transform="matrix(1,0,0,1,0,0)"
>
<path vector-effect="none" fill-rule="evenodd" d="M133,41 L171,41 L171,73 L133,73 L133,41"/>
</g>

<g fill="#8c8c2f" fill-opacity="1" stroke="none" transform="matrix(1,0,0,1,0,0)"
>
<path vector-effect="none" fill-rule="evenodd" d="M171,41 L211,41 L211,73 L171,73 L171,41"/>
</g>

<g fill="#8c8c2f" fill-opacity="1" stroke="none" transform="matrix(1,0,0,1,0,0)"
>
<path vector-effect="none" fill-rule="evenodd" d="M211,41 L248,41 L248,73 L211,73 L211,41"/>
</g>

<g fill="#8c8c2f" fill-opacity="1" stroke="none" transform="matrix(1,0,0,1,0,0)"
>
<path vector-effect="none" fill-rule="evenodd" d="M248,41 L289,41 L289,73 L248,73 L248,41"/>
</g>

<g fill="#2f4f4f" fill-opacity="1" stroke="none" transform="matrix(1,0,0,1,0,0)"
>
<path vector-effect="none" fill-rule="evenodd" d="M9,73 L91,73 L91,105 L9,105 L9,73"/>
</g>

<g fill="#8c8c2f" fill-opacity="1" stroke="none" transform="matrix(1,0,0,1,0,0)"
>
<path vector-effect="none" fill-rule="evenodd" d="M91,73 L133,73 L133,105 L91,105 L91,73"/>
</g>

<g fill="#8c0000" fill-opacity="1" stroke="none" transform="matrix(1,0,0,1,0,0)"
>
<path vector-effect="none" fill-rule="evenodd" d="M133,73 L171,73 L171,105 L133,105 L133,73"/>
</g>

<g fill="#588c00" fill-opacity="1" stroke="none" transform="matrix(1,0,0,1,0,0)"
>
<path vector-effect="none" fill-rule="evenodd" d="M171,73 L211,73 L211,105 L171,105 L171,73"/>
</g>

<g fill="#588c00" fill-opacity="1" stroke="none" transform="matrix(1,0,0,1,0,0)"
>
<path vector-effect="none" fill-rule="evenodd" d="M211,73 L248,73 L248,105 L211,105 L211,73"/>
</g>

<g fill="#8c8c2f" fill-opacity="1" stroke="none" transform="matrix(1,0,0,1,0,0)"
>
<path vector-effect="none" fill-rule="evenodd" d="M248,73 L289,73 L289,105 L248,105 L248,73"/>
</g>

<g fill="#2f4f4f" fill-opacity="1" stroke="none" transform="matrix(1,0,0,1,0,0)"
>
<path vector-effect="none" fill-rule="evenodd" d="M9,105 L91,105 L91,137 L9,137 L9,105"/>
</g>

<g fill="#588c00" fill-opacity="1" stroke="none" transform="matrix(1,0,0,1,0,0)"
>
<path vector-effect="none" fill-rule="evenodd" d="M91,105 L133,105 L133,137 L91,137 L91,105"/>
</g>

<g fill="#8c8c2f" fill-opacity="1" stroke="none" transform="matrix(1,0,0,1,0,0)"
>
<path vector-effect="none" fill-rule="evenodd" d="M133,105 L171,105 L171,137 L133,137 L133,105"/>
</g>

<g fill="#8c8c2f" fill-opacity="1" stroke="none" transform="matrix(1,0,0,1,0,0)"
>
<path vector-effect="none" fill-rule="evenodd" d="M171,105 L211,105 L211,137 L171,137 L171,105"/>
</g>

<g fill="#ad4800" fill-opacity="1" stroke="none" transform="matrix(1,0,0,1,0,0)"
>
<path vector-effect="none" fill-rule="evenodd" d="M211,105 L248,105 L248,137 L211,137 L211,105"/>
</g>

<g fill="#8c8c2f" fill-opacity="1" stroke="none" transform="matrix(1,0,0,1,0,0)"
>
<path vector-effect="none" fill-rule="evenodd" d="M248,105 L289,105 L289,137 L248,137 L248,105"/>
</g>

<g fill="#2f4f4f" fill-opacity="1" stroke="none" transform="matrix(1,0,0,1,0,0)"
>
<path vector-effect="none" fill-rule="evenodd" d="M9,137 L91,137 L91,169 L9,169 L9,137"/>
</g>

<g fill="#588c00" fill-opacity="1" stroke="none" transform="matrix(1,0,0,1,0,0)"
>
<path vector-effect="none" fill-rule="evenodd" d="M91,137 L133,137 L133,169 L91,169 L91,137"/>
</g>

<g fill="#8c0000" fill-opacity="1" stroke="none" transform="matrix(1,0,0,1,0,0)"
>
<path vector-effect="none" fill-rule="evenodd" d="M133,137 L171,137 L171,169 L133,169 L133,137"/>
</g>

<g fill="#0b8c00" fill-opacity="1" stroke="none" transform="matrix(1,0,0,1,0,0)"
>
<path vector-effect="none" fill-rule="evenodd" d="M171,137 L211,137 L211,169 L171,169 L171,137"/>
</g>

<g fill="#588c00" fill-opacity="1" stroke="none" transform="matrix(1,0,0,1,0,0)"
>
<path vector-effect="none" fill-rule="evenodd" d="M211,137 L248,137 L248,169 L211,169 L211,137"/>
</g>

<g fill="#8c0000" fill-opacity="1" stroke="none" transform="matrix(1,0,0,1,0,0)"
>
<path vector-effect="none" fill-rule="evenodd" d="M248,137 L289,137 L289,169 L248,169 L248,137"/>
</g>

<g fill="#f0f8ff" fill-opacity="1" stroke="none" transform="matrix(1,0,0,1,0,0)"
>
<path vector-effect="none" fill-rule="evenodd" d="M247,136 L290,136 L290,138 L247,138 L247,136"/>
</g>

<g fill="#f0f8ff" fill-opacity="1" stroke="none" transform="matrix(1,0,0,1,0,0)"
>
<path vector-effect="none" fill-rule="evenodd" d="M247,168 L290,168 L290,170 L247,170 L247,168"/>
</g>

<g fill="#f0f8ff" fill-opacity="1" stroke="none" transform="matrix(1,0,0,1,0,0)"
>
<path vector-effect="none" fill-rule="evenodd" d="M247,136 L249,136 L249,170 L247,170 L247,136"/>
</g>

<g fill="#f0f8ff" fill-opacity="1" stroke="none" transform="matrix(1,0,0,1,0,0)"
>
<path vector-effect="none" fill-rule="evenodd" d="M288,136 L290,136 L290,170 L288,170 L288,136"/>
</g>

<g fill="#f0f8ff" fill-opacity="1" stroke="none" transform="matrix(1,0,0,1,0,0)"
>
<path vector-effect="none" fill-rule="evenodd" d="M210,136 L249,136 L249,138 L210,138 L210,136"/>
</g>

<g fill="#f0f8ff" fill-opacity="1" stroke="none" transform="matrix(1,0,0,1,0,0)"
>
<path vector-effect="none" fill-rule="evenodd" d="M210,168 L249,168 L249,170 L210,170 L210,168"/>
</g>

<g fill="#f0f8ff" fill-opacity="1" stroke="none" transform="matrix(1,0,0,1,0,0)"
>
<path vector-effect="none" fill-rule="evenodd" d="M210,136 L212,136 L212,170 L210,170 L210,136"/>
</g>

<g fill="#f0f8ff" fill-opacity="1" stroke="none" transform="matrix(1,0,0,1,0,0)"
>
<path vector-effect="none" fill-rule="evenodd" d="M247,136 L249,136 L249,170 L247,170 L247,136"/>
</g>

<g fill="#f0f8ff" fill-opacity="1" stroke="none" transform="matrix(1,0,0,1,0,0)"
>
<path vector-effect="none" fill-rule="evenodd" d="M170,136 L212,136 L212,138 L170,138 L170,136"/>
</g>

<g fill="#f0f8ff" fill-opacity="1" stroke="none" transform="matrix(1,0,0,1,0,0)"
>
<path vector-effect="none" fill-rule="evenodd" d="M170,168 L212,168 L212,170 L170,170 L170,168"/>
</g>

<g fill="#f0f8ff" fill-opacity="1" stroke="none" transform="matrix(1,0,0,1,0,0)"
>
<path vector-effect="none" fill-rule="evenodd" d="M170,136 L172,136 L172,170 L170,170 L170,136"/>
</g>

<g fill="#f0f8ff" fill-opacity="1" stroke="none" transform="matrix(1,0,0,1,0,0)"
>
<path vector-effect="none" fill-rule="evenodd" d="M210,136 L212,136 L212,170 L210,170 L210,136"/>
</g>

<g fill="#f0f8ff" fill-opacity="1" stroke="none" transform="matrix(1,0,0,1,0,0)"
>
<path vector-effect="none" fill-rule="evenodd" d="M132,136 L172,136 L172,138 L132,138 L132,136"/>
</g>

<g fill="#f0f8ff" fill-opacity="1" stroke="none" transform="matrix(1,0,0,1,0,0)"
>
<path vector-effect="none" fill-rule="evenodd" d="M132,168 L172,168 L172,170 L132,170 L132,168"/>
</g>

<g fill="#f0f8ff" fill-opacity="1" stroke="none" transform="matrix(1,0,0,1,0,0)"
>
<path vector-effect="none" fill-rule="evenodd" d="M132,136 L134,136 L134,170 L132,170 L132,136"/>
</g>

<g fill="#f0f8ff" fill-opacity="1" stroke="none" transform="matrix(1,0,0,1,0,0)"
>
<path vector-effect="none" fill-rule="evenodd" d="M170,136 L172,136 L172,170 L170,170 L170,136"/>
</g>

<g fill="#f0f8ff" fill-opacity="1" stroke="none" transform="matrix(1,0,0,1,0,0)"
>
<path vector-effect="none" fill-rule="evenodd" d="M90,136 L134,136 L134,138 L90,138 L90,136"/>
</g>

<g fill="#f0f8ff" fill-opacity="1" stroke="none" transform="matrix(1,0,0,1,0,0)"
>
<path vector-effect="none" fill-rule="evenodd" d="M90,168 L134,168 L134,170 L90,170 L90,168"/>
</g>

<g fill="#f0f8ff" fill-opacity="1" stroke="none" transform="matrix(1,0,0,1,0,0)"
>
<path vector-effect="none" fill-rule="evenodd" d="M90,136 L92,136 L92,170 L90,170 L90,136"/>
</g>

<g fill="#f0f8ff" fill-opacity="1" stroke="none" transform="matrix(1,0,0,1,0,0)"
>
<path vector-effect="none" fill-rule="evenodd" d="M132,136 L134,136 L134,170 L132,170 L132,136"/>
</g>

<g fill="#f0f8ff" fill-opacity="1" stroke="none" transform="matrix(1,0,0,1,0,0)"
>
<path vector-effect="none" fill-rule="evenodd" d="M8,136 L92,136 L92,138 L8,138 L8,136"/>
</g>

<g fill="#f0f8ff" fill-opacity="1" stroke="none" transform="matrix(1,0,0,1,0,0)"
>
<path vector-effect="none" fill-rule="evenodd" d="M8,168 L92,168 L92,170 L8,170 L8,168"/>
</g>

<g fill="#f0f8ff" fill-opacity="1" stroke="none" transform="matrix(1,0,0,1,0,0)"
>
<path vector-effect="none" fill-rule="evenodd" d="M8,136 L10,136 L10,170 L8,170 L8,136"/>
</g>

<g fill="#f0f8ff" fill-opacity="1" stroke="none" transform="matrix(1,0,0,1,0,0)"
>
<path vector-effect="none" fill-rule="evenodd" d="M90,136 L92,136 L92,170 L90,170 L90,136"/>
</g>

<g fill="#f0f8ff" fill-opacity="1" stroke="none" transform="matrix(1,0,0,1,0,0)"
>
<path vector-effect="none" fill-rule="evenodd" d="M247,104 L290,104 L290,106 L247,106 L247,104"/>
</g>

<g fill="#f0f8ff" fill-opacity="1" stroke="none" transform="matrix(1,0,0,1,0,0)"
>
<path vector-effect="none" fill-rule="evenodd" d="M247,136 L290,136 L290,138 L247,138 L247,136"/>
</g>

<g fill="#f0f8ff" fill-opacity="1" stroke="none" transform="matrix(1,0,0,1,0,0)"
>
<path vector-effect="none" fill-rule="evenodd" d="M247,104 L249,104 L249,138 L247,138 L247,104"/>
</g>

<g fill="#f0f8ff" fill-opacity="1" stroke="none" transform="matrix(1,0,0,1,0,0)"
>
<path vector-effect="none" fill-rule="evenodd" d="M288,104 L290,104 L290,138 L288,138 L288,104"/>
</g>

<g fill="#f0f8ff" fill-opacity="1" stroke="none" transform="matrix(1,0,0,1,0,0)"
>
<path vector-effect="none" fill-rule="evenodd" d="M210,104 L249,104 L249,106 L210,106 L210,104"/>
</g>

<g fill="#f0f8ff" fill-opacity="1" stroke="none" transform="matrix(1,0,0,1,0,0)"
>
<path vector-effect="none" fill-rule="evenodd" d="M210,136 L249,136 L249,138 L210,138 L210,136"/>
</g>

<g fill="#f0f8ff" fill-opacity="1" stroke="none" transform="matrix(1,0,0,1,0,0)"
>
<path vector-effect="none" fill-rule="evenodd" d="M210,104 L212,104 L212,138 L210,138 L210,104"/>
</g>

<g fill="#f0f8ff" fill-opacity="1" stroke="none" transform="matrix(1,0,0,1,0,0)"
>
<path vector-effect="none" fill-rule="evenodd" d="M247,104 L249,104 L249,138 L247,138 L247,104"/>
</g>

<g fill="#f0f8ff" fill-opacity="1" stroke="none" transform="matrix(1,0,0,1,0,0)"
>
<path vector-effect="none" fill-rule="evenodd" d="M170,104 L212,104 L212,106 L170,106 L170,104"/>
</g>

<g fill="#f0f8ff" fill-opacity="1" stroke="none" transform="matrix(1,0,0,1,0,0)"
>
<path vector-effect="none" fill-rule="evenodd" d="M170,136 L212,136 L212,138 L170,138 L170,136"/>
</g>

<g fill="#f0f8ff" fill-opacity="1" stroke="none" transform="matrix(1,0,0,1,0,0)"
>
<path vector-effect="none" fill-rule="evenodd" d="M170,104 L172,104 L172,138 L170,138 L170,104"/>
</g>

<g fill="#f0f8ff" fill-opacity="1" stroke="none" transform="matrix(1,0,0,1,0,0)"
>
<path vector-effect="none" fill-rule="evenodd" d="M210,104 L212,104 L212,138 L210,138 L210,104"/>
</g>

<g fill="#f0f8ff" fill-opacity="1" stroke="none" transform="matrix(1,0,0,1,0,0)"
>
<path vector-effect="none" fill-rule="evenodd" d="M132,104 L172,104 L172,106 L132,106 L132,104"/>
</g>

<g fill="#f0f8ff" fill-opacity="1" stroke="none" transform="matrix(1,0,0,1,0,0)"
>
<path vector-effect="none" fill-rule="evenodd" d="M132,136 L172,136 L172,138 L132,138 L132,136"/>
</g>

<g fill="#f0f8ff" fill-opacity="1" stroke="none" transform="matrix(1,0,0,1,0,0)"
>
<path vector-effect="none" fill-rule="evenodd" d="M132,104 L134,104 L134,138 L132,138 L132,104"/>
</g>

<g fill="#f0f8ff" fill-opacity="1" stroke="none" transform="matrix(1,0,0,1,0,0)"
>
<path vector-effect="none" fill-rule="evenodd" d="M170,104 L172,104 L172,138 L170,138 L170,104"/>
</g>

<g fill="#f0f8ff" fill-opacity="1" stroke="none" transform="matrix(1,0,0,1,0,0)"
>
<path vector-effect="none" fill-rule="evenodd" d="M90,104 L134,104 L134,106 L90,106 L90,104"/>
</g>

<g fill="#f0f8ff" fill-opacity="1" stroke="none" transform="matrix(1,0,0,1,0,0)"
>
<path vector-effect="none" fill-rule="evenodd" d="M90,136 L134,136 L134,138 L90,138 L90,136"/>
</g>

<g fill="#f0f8ff" fill-opacity="1" stroke="none" transform="matrix(1,0,0,1,0,0)"
>
<path vector-effect="none" fill-rule="evenodd" d="M90,104 L92,104 L92,138 L90,138 L90,104"/>
</g>

<g fill="#f0f8ff" fill-opacity="1" stroke="none" transform="matrix(1,0,0,1,0,0)"
>
<path vector-effect="none" fill-rule="evenodd" d="M132,104 L134,104 L134,138 L132,138 L132,104"/>
</g>

<g fill="#f0f8ff" fill-opacity="1" stroke="none" transform="matrix(1,0,0,1,0,0)"
>
<path vector-effect="none" fill-rule="evenodd" d="M8,104 L92,104 L92,106 L8,106 L8,104"/>
</g>

<g fill="#f0f8ff" fill-opacity="1" stroke="none" transform="matrix(1,0,0,1,0,0)"
>
<path vector-effect="none" fill-rule="evenodd" d="M8,136 L92,136 L92,138 L8,138 L8,136"/>
</g>

<g fill="#f0f8ff" fill-opacity="1" stroke="none" transform="matrix(1,0,0,1,0,0)"
>
<path vector-effect="none" fill-rule="evenodd" d="M8,104 L10,104 L10,138 L8,138 L8,104"/>
</g>

<g fill="#f0f8ff" fill-opacity="1" stroke="none" transform="matrix(1,0,0,1,0,0)"
>
<path vector-effect="none" fill-rule="evenodd" d="M90,104 L92,104 L92,138 L90,138 L90,104"/>
</g>

<g fill="#f0f8ff" fill-opacity="1" stroke="none" transform="matrix(1,0,0,1,0,0)"
>
<path vector-effect="none" fill-rule="evenodd" d="M247,72 L290,72 L290,74 L247,74 L247,72"/>
</g>

<g fill="#f0f8ff" fill-opacity="1" stroke="none" transform="matrix(1,0,0,1,0,0)"
>
<path vector-effect="none" fill-rule="evenodd" d="M247,104 L290,104 L290,106 L247,106 L247,104"/>
</g>

<g fill="#f0f8ff" fill-opacity="1" stroke="none" transform="matrix(1,0,0,1,0,0)"
>
<path vector-effect="none" fill-rule="evenodd" d="M247,72 L249,72 L249,106 L247,106 L247,72"/>
</g>

<g fill="#f0f8ff" fill-opacity="1" stroke="none" transform="matrix(1,0,0,1,0,0)"
>
<path vector-effect="none" fill-rule="evenodd" d="M288,72 L290,72 L290,106 L288,106 L288,72"/>
</g>

<g fill="#f0f8ff" fill-opacity="1" stroke="none" transform="matrix(1,0,0,1,0,0)"
>
<path vector-effect="none" fill-rule="evenodd" d="M210,72 L249,72 L249,74 L210,74 L210,72"/>
</g>

<g fill="#f0f8ff" fill-opacity="1" stroke="none" transform="matrix(1,0,0,1,0,0)"
>
<path vector-effect="none" fill-rule="evenodd" d="M210,104 L249,104 L249,106 L210,106 L210,104"/>
</g>

<g fill="#f0f8ff" fill-opacity="1" stroke="none" transform="matrix(1,0,0,1,0,0)"
>
<path vector-effect="none" fill-rule="evenodd" d="M210,72 L212,72 L212,106 L210,106 L210,72"/>
</g>

<g fill="#f0f8ff" fill-opacity="1" stroke="none" transform="matrix(1,0,0,1,0,0)"
>
<path vector-effect="none" fill-rule="evenodd" d="M247,72 L249,72 L249,106 L247,106 L247,72"/>
</g>

<g fill="#f0f8ff" fill-opacity="1" stroke="none" transform="matrix(1,0,0,1,0,0)"
>
<path vector-effect="none" fill-rule="evenodd" d="M170,72 L212,72 L212,74 L170,74 L170,72"/>
</g>

<g fill="#f0f8ff" fill-opacity="1" stroke="none" transform="matrix(1,0,0,1,0,0)"
>
<path vector-effect="none" fill-rule="evenodd" d="M170,104 L212,104 L212,106 L170,106 L170,104"/>
</g>

<g fill="#f0f8ff" fill-opacity="1" stroke="none" transform="matrix(1,0,0,1,0,0)"
>
<path vector-effect="none" fill-rule="evenodd" d="M170,72 L172,72 L172,106 L170,106 L170,72"/>
</g>

<g fill="#f0f8ff" fill-opacity="1" stroke="none" transform="matrix(1,0,0,1,0,0)"
>
<path vector-effect="none" fill-rule="evenodd" d="M210,72 L212,72 L212,106 L210,106 L210,72"/>
</g>

<g fill="#f0f8ff" fill-opacity="1" stroke="none" transform="matrix(1,0,0,1,0,0)"
>
<path vector-effect="none" fill-rule="evenodd" d="M132,72 L172,72 L172,74 L132,74 L132,72"/>
</g>

<g fill="#f0f8ff" fill-opacity="1" stroke="none" transform="matrix(1,0,0,1,0,0)"
>
<path vector-effect="none" fill-rule="evenodd" d="M132,104 L172,104 L172,106 L132,106 L132,104"/>
</g>

<g fill="#f0f8ff" fill-opacity="1" stroke="none" transform="matrix(1,0,0,1,0,0)"
>
<path vector-effect="none" fill-rule="evenodd" d="M132,72 L134,72 L134,106 L132,106 L132,72"/>
</g>

<g fill="#f0f8ff" fill-opacity="1" stroke="none" transform="matrix(1,0,0,1,0,0)"
>
<path vector-effect="none" fill-rule="evenodd" d="M170,72 L172,72 L172,106 L170,106 L170,72"/>
</g>

<g fill="#f0f8ff" fill-opacity="1" stroke="none" transform="matrix(1,0,0,1,0,0)"
>
<path vector-effect="none" fill-rule="evenodd" d="M90,72 L134,72 L134,74 L90,74 L90,72"/>
</g>

<g fill="#f0f8ff" fill-opacity="1" stroke="none" transform="matrix(1,0,0,1,0,0)"
>
<path vector-effect="none" fill-rule="evenodd" d="M90,104 L134,104 L134,106 L90,106 L90,104"/>
</g>

<g fill="#f0f8ff" fill-opacity="1" stroke="none" transform="matrix(1,0,0,1,0,0)"
>
<path vector-effect="none" fill-rule="evenodd" d="M90,72 L92,72 L92,106 L90,106 L90,72"/>
</g>

<g fill="#f0f8ff" fill-opacity="1" stroke="none" transform="matrix(1,0,0,1,0,0)"
>
<path vector-effect="none" fill-rule="evenodd" d="M132,72 L134,72 L134,106 L132,106 L132,72"/>
</g>

<g fill="#f0f8ff" fill-opacity="1" stroke="none" transform="matrix(1,0,0,1,0,0)"
>
<path vector-effect="none" fill-rule="evenodd" d="M8,72 L92,72 L92,74 L8,74 L8,72"/>
</g>

<g fill="#f0f8ff" fill-opacity="1" stroke="none" transform="matrix(1,0,0,1,0,0)"
>
<path vector-effect="none" fill-rule="evenodd" d="M8,104 L92,104 L92,106 L8,106 L8,104"/>
</g>

<g fill="#f0f8ff" fill-opacity="1" stroke="none" transform="matrix(1,0,0,1,0,0)"
>
<path vector-effect="none" fill-rule="evenodd" d="M8,72 L10,72 L10,106 L8,106 L8,72"/>
</g>

<g fill="#f0f8ff" fill-opacity="1" stroke="none" transform="matrix(1,0,0,1,0,0)"
>
<path vector-effect="none" fill-rule="evenodd" d="M90,72 L92,72 L92,106 L90,106 L90,72"/>
</g>

<g fill="#f0f8ff" fill-opacity="1" stroke="none" transform="matrix(1,0,0,1,0,0)"
>
<path vector-effect="none" fill-rule="evenodd" d="M247,40 L290,40 L290,42 L247,42 L247,40"/>
</g>

<g fill="#f0f8ff" fill-opacity="1" stroke="none" transform="matrix(1,0,0,1,0,0)"
>
<path vector-effect="none" fill-rule="evenodd" d="M247,72 L290,72 L290,74 L247,74 L247,72"/>
</g>

<g fill="#f0f8ff" fill-opacity="1" stroke="none" transform="matrix(1,0,0,1,0,0)"
>
<path vector-effect="none" fill-rule="evenodd" d="M247,40 L249,40 L249,74 L247,74 L247,40"/>
</g>

<g fill="#f0f8ff" fill-opacity="1" stroke="none" transform="matrix(1,0,0,1,0,0)"
>
<path vector-effect="none" fill-rule="evenodd" d="M288,40 L290,40 L290,74 L288,74 L288,40"/>
</g>

<g fill="#f0f8ff" fill-opacity="1" stroke="none" transform="matrix(1,0,0,1,0,0)"
>
<path vector-effect="none" fill-rule="evenodd" d="M210,40 L249,40 L249,42 L210,42 L210,40"/>
</g>

<g fill="#f0f8ff" fill-opacity="1" stroke="none" transform="matrix(1,0,0,1,0,0)"
>
<path vector-effect="none" fill-rule="evenodd" d="M210,72 L249,72 L249,74 L210,74 L210,72"/>
</g>

<g fill="#f0f8ff" fill-opacity="1" stroke="none" transform="matrix(1,0,0,1,0,0)"
>
<path vector-effect="none" fill-rule="evenodd" d="M210,40 L212,40 L212,74 L210,74 L210,40"/>
</g>

<g fill="#f0f8ff" fill-opacity="1" stroke="none" transform="matrix(1,0,0,1,0,0)"
>
<path vector-effect="none" fill-rule="evenodd" d="M247,40 L249,40 L249,74 L247,74 L247,40"/>
</g>

<g fill="#f0f8ff" fill-opacity="1" stroke="none" transform="matrix(1,0,0,1,0,0)"
>
<path vector-effect="none" fill-rule="evenodd" d="M170,40 L212,40 L212,42 L170,42 L170,40"/>
</g>

<g fill="#f0f8ff" fill-opacity="1" stroke="none" transform="matrix(1,0,0,1,0,0)"
>
<path vector-effect="none" fill-rule="evenodd" d="M170,72 L212,72 L212,74 L170,74 L170,72"/>
</g>

<g fill="#f0f8ff" fill-opacity="1" stroke="none" transform="matrix(1,0,0,1,0,0)"
>
<path vector-effect="none" fill-rule="evenodd" d="M170,40 L172,40 L172,74 L170,74 L170,40"/>
</g>

<g fill="#f0f8ff" fill-opacity="1" stroke="none" transform="matrix(1,0,0,1,0,0)"
>
<path vector-effect="none" fill-rule="evenodd" d="M210,40 L212,40 L212,74 L210,74 L210,40"/>
</g>

<g fill="#f0f8ff" fill-opacity="1" stroke="none" transform="matrix(1,0,0,1,0,0)"
>
<path vector-effect="none" fill-rule="evenodd" d="M132,40 L172,40 L172,42 L132,42 L132,40"/>
</g>

<g fill="#f0f8ff" fill-opacity="1" stroke="none" transform="matrix(1,0,0,1,0,0)"
>
<path vector-effect="none" fill-rule="evenodd" d="M132,72 L172,72 L172,74 L132,74 L132,72"/>
</g>

<g fill="#f0f8ff" fill-opacity="1" stroke="none" transform="matrix(1,0,0,1,0,0)"
>
<path vector-effect="none" fill-rule="evenodd" d="M132,40 L134,40 L134,74 L132,74 L132,40"/>
</g>

<g fill="#f0f8ff" fill-opacity="1" stroke="none" transform="matrix(1,0,0,1,0,0)"
>
<path vector-effect="none" fill-rule="evenodd" d="M170,40 L172,40 L172,74 L170,74 L170,40"/>
</g>

<g fill="#f0f8ff" fill-opacity="1" stroke="none" transform="matrix(1,0,0,1,0,0)"
>
<path vector-effect="none" fill-rule="evenodd" d="M90,40 L134,40 L134,42 L90,42 L90,40"/>
</g>

<g fill="#f0f8ff" fill-opacity="1" stroke="none" transform="matrix(1,0,0,1,0,0)"
>
<path vector-effect="none" fill-rule="evenodd" d="M90,72 L134,72 L134,74 L90,74 L90,72"/>
</g>

<g fill="#f0f8ff" fill-opacity="1" stroke="none" transform="matrix(1,0,0,1,0,0)"
>
<path vector-effect="none" fill-rule="evenodd" d="M90,40 L92,40 L92,74 L90,74 L90,40"/>
</g>

<g fill="#f0f8ff" fill-opacity="1" stroke="none" transform="matrix(1,0,0,1,0,0)"
>
<path vector-effect="none" fill-rule="evenodd" d="M132,40 L134,40 L134,74 L132,74 L132,40"/>
</g>

<g fill="#f0f8ff" fill-opacity="1" stroke="none" transform="matrix(1,0,0,1,0,0)"
>
<path vector-effect="none" fill-rule="evenodd" d="M8,40 L92,40 L92,42 L8,42 L8,40"/>
</g>

<g fill="#f0f8ff" fill-opacity="1" stroke="none" transform="matrix(1,0,0,1,0,0)"
>
<path vector-effect="none" fill-rule="evenodd" d="M8,72 L92,72 L92,74 L8,74 L8,72"/>
</g>

<g fill="#f0f8ff" fill-opacity="1" stroke="none" transform="matrix(1,0,0,1,0,0)"
>
<path vector-effect="none" fill-rule="evenodd" d="M8,40 L10,40 L10,74 L8,74 L8,40"/>
</g>

<g fill="#f0f8ff" fill-opacity="1" stroke="none" transform="matrix(1,0,0,1,0,0)"
>
<path vector-effect="none" fill-rule="evenodd" d="M90,40 L92,40 L92,74 L90,74 L90,40"/>
</g>

<g fill="#f0f8ff" fill-opacity="1" stroke="none" transform="matrix(1,0,0,1,0,0)"
>
<path vector-effect="none" fill-rule="evenodd" d="M247,8 L290,8 L290,10 L247,10 L247,8"/>
</g>

<g fill="#f0f8ff" fill-opacity="1" stroke="none" transform="matrix(1,0,0,1,0,0)"
>
<path vector-effect="none" fill-rule="evenodd" d="M247,40 L290,40 L290,42 L247,42 L247,40"/>
</g>

<g fill="#f0f8ff" fill-opacity="1" stroke="none" transform="matrix(1,0,0,1,0,0)"
>
<path vector-effect="none" fill-rule="evenodd" d="M247,8 L249,8 L249,42 L247,42 L247,8"/>
</g>

<g fill="#f0f8ff" fill-opacity="1" stroke="none" transform="matrix(1,0,0,1,0,0)"
>
<path vector-effect="none" fill-rule="evenodd" d="M288,8 L290,8 L290,42 L288,42 L288,8"/>
</g>

<g fill="#f0f8ff" fill-opacity="1" stroke="none" transform="matrix(1,0,0,1,0,0)"
>
<path vector-effect="none" fill-rule="evenodd" d="M210,8 L249,8 L249,10 L210,10 L210,8"/>
</g>

<g fill="#f0f8ff" fill-opacity="1" stroke="none" transform="matrix(1,0,0,1,0,0)"
>
<path vector-effect="none" fill-rule="evenodd" d="M210,40 L249,40 L249,42 L210,42 L210,40"/>
</g>

<g fill="#f0f8ff" fill-opacity="1" stroke="none" transform="matrix(1,0,0,1,0,0)"
>
<path vector-effect="none" fill-rule="evenodd" d="M210,8 L212,8 L212,42 L210,42 L210,8"/>
</g>

<g fill="#f0f8ff" fill-opacity="1" stroke="none" transform="matrix(1,0,0,1,0,0)"
>
<path vector-effect="none" fill-rule="evenodd" d="M247,8 L249,8 L249,42 L247,42 L247,8"/>
</g>

<g fill="#f0f8ff" fill-opacity="1" stroke="none" transform="matrix(1,0,0,1,0,0)"
>
<path vector-effect="none" fill-rule="evenodd" d="M170,8 L212,8 L212,10 L170,10 L170,8"/>
</g>

<g fill="#f0f8ff" fill-opacity="1" stroke="none" transform="matrix(1,0,0,1,0,0)"
>
<path vector-effect="none" fill-rule="evenodd" d="M170,40 L212,40 L212,42 L170,42 L170,40"/>
</g>

<g fill="#f0f8ff" fill-opacity="1" stroke="none" transform="matrix(1,0,0,1,0,0)"
>
<path vector-effect="none" fill-rule="evenodd" d="M170,8 L172,8 L172,42 L170,42 L170,8"/>
</g>

<g fill="#f0f8ff" fill-opacity="1" stroke="none" transform="matrix(1,0,0,1,0,0)"
>
<path vector-effect="none" fill-rule="evenodd" d="M210,8 L212,8 L212,42 L210,42 L210,8"/>
</g>

<g fill="#f0f8ff" fill-opacity="1" stroke="none" transform="matrix(1,0,0,1,0,0)"
>
<path vector-effect="none" fill-rule="evenodd" d="M132,8 L172,8 L172,10 L132,10 L132,8"/>
</g>

<g fill="#f0f8ff" fill-opacity="1" stroke="none" transform="matrix(1,0,0,1,0,0)"
>
<path vector-effect="none" fill-rule="evenodd" d="M132,40 L172,40 L172,42 L132,42 L132,40"/>
</g>

<g fill="#f0f8ff" fill-opacity="1" stroke="none" transform="matrix(1,0,0,1,0,0)"
>
<path vector-effect="none" fill-rule="evenodd" d="M132,8 L134,8 L134,42 L132,42 L132,8"/>
</g>

<g fill="#f0f8ff" fill-opacity="1" stroke="none" transform="matrix(1,0,0,1,0,0)"
>
<path vector-effect="none" fill-rule="evenodd" d="M170,8 L172,8 L172,42 L170,42 L170,8"/>
</g>

<g fill="#f0f8ff" fill-opacity="1" stroke="none" transform="matrix(1,0,0,1,0,0)"
>
<path vector-effect="none" fill-rule="evenodd" d="M90,8 L134,8 L134,10 L90,10 L90,8"/>
</g>

<g fill="#f0f8ff" fill-opacity="1" stroke="none" transform="matrix(1,0,0,1,0,0)"
>
<path vector-effect="none" fill-rule="evenodd" d="M90,40 L134,40 L134,42 L90,42 L90,40"/>
</g>

<g fill="#f0f8ff" fill-opacity="1" stroke="none" transform="matrix(1,0,0,1,0,0)"
>
<path vector-effect="none" fill-rule="evenodd" d="M90,8 L92,8 L92,42 L90,42 L90,8"/>
</g>

<g fill="#f0f8ff" fill-opacity="1" stroke="none" transform="matrix(1,0,0,1,0,0)"
>
<path vector-effect="none" fill-rule="evenodd" d="M132,8 L134,8 L134,42 L132,42 L132,8"/>
</g>

<g fill="#f0f8ff" fill-opacity="1" stroke="none" transform="matrix(1,0,0,1,0,0)"
>
<path vector-effect="none" fill-rule="evenodd" d="M8,8 L92,8 L92,10 L8,10 L8,8"/>
</g>

<g fill="#f0f8ff" fill-opacity="1" stroke="none" transform="matrix(1,0,0,1,0,0)"
>
<path vector-effect="none" fill-rule="evenodd" d="M8,40 L92,40 L92,42 L8,42 L8,40"/>
</g>

<g fill="#f0f8ff" fill-opacity="1" stroke="none" transform="matrix(1,0,0,1,0,0)"
>
<path vector-effect="none" fill-rule="evenodd" d="M8,8 L10,8 L10,42 L8,42 L8,8"/>
</g>

<g fill="#f0f8ff" fill-opacity="1" stroke="none" transform="matrix(1,0,0,1,0,0)"
>
<path vector-effect="none" fill-rule="evenodd" d="M90,8 L92,8 L92,42 L90,42 L90,8"/>
</g>

<g fill="#ffffff" fill-opacity="1" stroke="#ffffff" stroke-opacity="1" stroke-width="1" stroke-linecap="square" stroke-linejoin="bevel" transform="matrix(1,0,0,1,0,0)"
>
<text fill="#ffffff" fill-opacity="1" stroke="none" xml:space="preserve" x="97" y="30" font-family="Arial" font-size="16" font-weight="700" font-style="normal" 
 >Des</text>
</g>

<g fill="#ffffff" fill-opacity="1" stroke="#ffffff" stroke-opacity="1" stroke-width="1" stroke-linecap="square" stroke-linejoin="bevel" transform="matrix(1,0,0,1,0,0)"
>
<text fill="#ffffff" fill-opacity="1" stroke="none" xml:space="preserve" x="139" y="30" font-family="Arial" font-size="16" font-weight="700" font-style="normal" 
 >For</text>
</g>

<g fill="#ffffff" fill-opacity="1" stroke="#ffffff" stroke-opacity="1" stroke-width="1" stroke-linecap="square" stroke-linejoin="bevel" transform="matrix(1,0,0,1,0,0)"
>
<text fill="#ffffff" fill-opacity="1" stroke="none" xml:space="preserve" x="177" y="30" font-family="Arial" font-size="16" font-weight="700" font-style="normal" 
 >Mnt</text>
</g>

<g fill="#ffffff" fill-opacity="1" stroke="#ffffff" stroke-opacity="1" stroke-width="1" stroke-linecap="square" stroke-linejoin="bevel" transform="matrix(1,0,0,1,0,0)"
>
<text fill="#ffffff" fill-opacity="1" stroke="none" xml:space="preserve" x="217" y="30" font-family="Arial" font-size="16" font-weight="700" font-style="normal" 
 >Pln</text>
</g>

<g fill="#ffffff" fill-opacity="1" stroke="#ffffff" stroke-opacity="1" stroke-width="1" stroke-linecap="square" stroke-linejoin="bevel" transform="matrix(1,0,0,1,0,0)"
>
<text fill="#ffffff" fill-opacity="1" stroke="none" xml:space="preserve" x="254" y="30" font-family="Arial" font-size="16" font-weight="700" font-style="normal" 
 >Wld</text>
</g>

<g fill="#ffffff" fill-opacity="1" stroke="#ffffff" stroke-opacity="1" stroke-width="1" stroke-linecap="square" stroke-linejoin="bevel" transform="matrix(1,0,0,1,0,0)"
>
<text fill="#ffffff" fill-opacity="1" stroke="none" xml:space="preserve" x="27.5" y="62" font-family="Arial" font-size="16" font-weight="700" font-style="normal" 
 >Rome</text>
</g>

<g fill="#ffffff" fill-opacity="1" stroke="#ffffff" stroke-opacity="1" stroke-width="1" stroke-linecap="square" stroke-linejoin="bevel" transform="matrix(1,0,0,1,0,0)"
>
<text fill="#ffffff" fill-opacity="1" stroke="none" xml:space="preserve" x="97" y="62" font-family="Arial" font-size="16" font-weight="400" font-style="normal" 
 >7</text>
</g>

<g fill="#ffffff" fill-opacity="1" stroke="#ffffff" stroke-opacity="1" stroke-width="1" stroke-linecap="square" stroke-linejoin="bevel" transform="matrix(1,0,0,1,0,0)"
>
<text fill="#ffffff" fill-opacity="1" stroke="none" xml:space="preserve" x="139" y="62" font-family="Arial" font-size="16" font-weight="400" font-style="normal" 
 >-6</text>
</g>

<g fill="#ffffff" fill-opacity="1" stroke="#ffffff" stroke-opacity="1" stroke-width="1" stroke-linecap="square" stroke-linejoin="bevel" transform="matrix(1,0,0,1,0,0)"
>
<text fill="#ffffff" fill-opacity="1" stroke="none" xml:space="preserve" x="177" y="62" font-family="Arial" font-size="16" font-weight="400" font-style="normal" 
 >0</text>
</g>

<g fill="#ffffff" fill-opacity="1" stroke="#ffffff" stroke-opacity="1" stroke-width="1" stroke-linecap="square" stroke-linejoin="bevel" transform="matrix(1,0,0,1,0,0)"
>
<text fill="#ffffff" fill-opacity="1" stroke="none" xml:space="preserve" x="217" y="62" font-family="Arial" font-size="16" font-weight="400" font-style="normal" 
 >0</text>
</g>

<g fill="#ffffff" fill-opacity="1" stroke="#ffffff" stroke-opacity="1" stroke-width="1" stroke-linecap="square" stroke-linejoin="bevel" transform="matrix(1,0,0,1,0,0)"
>
<text fill="#ffffff" fill-opacity="1" stroke="none" xml:space="preserve" x="254" y="62" font-family="Arial" font-size="16" font-weight="400" font-style="normal" 
 >0</text>
</g>

<g fill="#ffffff" fill-opacity="1" stroke="#ffffff" stroke-opacity="1" stroke-width="1" stroke-linecap="square" stroke-linejoin="bevel" transform="matrix(1,0,0,1,0,0)"
>
<text fill="#ffffff" fill-opacity="1" stroke="none" xml:space="preserve" x="16.5" y="94" font-family="Arial" font-size="16" font-weight="700" font-style="normal" 
 >Sarmatia</text>
</g>

<g fill="#ffffff" fill-opacity="1" stroke="#ffffff" stroke-opacity="1" stroke-width="1" stroke-linecap="square" stroke-linejoin="bevel" transform="matrix(1,0,0,1,0,0)"
>
<text fill="#ffffff" fill-opacity="1" stroke="none" xml:space="preserve" x="97" y="94" font-family="Arial" font-size="16" font-weight="400" font-style="normal" 
 >0</text>
</g>

<g fill="#ffffff" fill-opacity="1" stroke="#ffffff" stroke-opacity="1" stroke-width="1" stroke-linecap="square" stroke-linejoin="bevel" transform="matrix(1,0,0,1,0,0)"
>
<text fill="#ffffff" fill-opacity="1" stroke="none" xml:space="preserve" x="139" y="94" font-family="Arial" font-size="16" font-weight="400" font-style="normal" 
 >-6</text>
</g>

<g fill="#ffffff" fill-opacity="1" stroke="#ffffff" stroke-opacity="1" stroke-width="1" stroke-linecap="square" stroke-linejoin="bevel" transform="matrix(1,0,0,1,0,0)"
>
<text fill="#ffffff" fill-opacity="1" stroke="none" xml:space="preserve" x="177" y="94" font-family="Arial" font-size="16" font-weight="400" font-style="normal" 
 >3</text>
</g>

<g fill="#ffffff" fill-opacity="1" stroke="#ffffff" stroke-opacity="1" stroke-width="1" stroke-linecap="square" stroke-linejoin="bevel" transform="matrix(1,0,0,1,0,0)"
>
<text fill="#ffffff" fill-opacity="1" stroke="none" xml:space="preserve" x="217" y="94" font-family="Arial" font-size="16" font-weight="400" font-style="normal" 
 >3</text>
</g>

<g fill="#ffffff" fill-opacity="1" stroke="#ffffff" stroke-opacity="1" stroke-width="1" stroke-linecap="square" stroke-linejoin="bevel" transform="matrix(1,0,0,1,0,0)"
>
<text fill="#ffffff" fill-opacity="1" stroke="none" xml:space="preserve" x="254" y="94" font-family="Arial" font-size="16" font-weight="400" font-style="normal" 
 >0</text>
</g>

<g fill="#ffffff" fill-opacity="1" stroke="#ffffff" stroke-opacity="1" stroke-width="1" stroke-linecap="square" stroke-linejoin="bevel" transform="matrix(1,0,0,1,0,0)"
>
<text fill="#ffffff" fill-opacity="1" stroke="none" xml:space="preserve" x="15" y="126" font-family="Arial" font-size="16" font-weight="700" font-style="normal" 
 >Macedon</text>
</g>

<g fill="#ffffff" fill-opacity="1" stroke="#ffffff" stroke-opacity="1" stroke-width="1" stroke-linecap="square" stroke-linejoin="bevel" transform="matrix(1,0,0,1,0,0)"
>
<text fill="#ffffff" fill-opacity="1" stroke="none" xml:space="preserve" x="97" y="126" font-family="Arial" font-size="16" font-weight="400" font-style="normal" 
 >3</text>
</g>

<g fill="#ffffff" fill-opacity="1" stroke="#ffffff" stroke-opacity="1" stroke-width="1" stroke-linecap="square" stroke-linejoin="bevel" transform="matrix(1,0,0,1,0,0)"
>
<text fill="#ffffff" fill-opacity="1" stroke="none" xml:space="preserve" x="139" y="126" font-family="Arial" font-size="16" font-weight="400" font-style="normal" 
 >0</text>
</g>

<g fill="#ffffff" fill-opacity="1" stroke="#ffffff" stroke-opacity="1" stroke-width="1" stroke-linecap="square" stroke-linejoin="bevel" transform="matrix(1,0,0,1,0,0)"
>
<text fill="#ffffff" fill-opacity="1" stroke="none" xml:space="preserve" x="177" y="126" font-family="Arial" font-size="16" font-weight="400" font-style="normal" 
 >0</text>
</g>

<g fill="#ffffff" fill-opacity="1" stroke="#ffffff" stroke-opacity="1" stroke-width="1" stroke-linecap="square" stroke-linejoin="bevel" transform="matrix(1,0,0,1,0,0)"
>
<text fill="#ffffff" fill-opacity="1" stroke="none" xml:space="preserve" x="217" y="126" font-family="Arial" font-size="16" font-weight="400" font-style="normal" 
 >-3</text>
</g>

<g fill="#ffffff" fill-opacity="1" stroke="#ffffff" stroke-opacity="1" stroke-width="1" stroke-linecap="square" stroke-linejoin="bevel" transform="matrix(1,0,0,1,0,0)"
>
<text fill="#ffffff" fill-opacity="1" stroke="none" xml:space="preserve" x="254" y="126" font-family="Arial" font-size="16" font-weight="400" font-style="normal" 
 >0</text>
</g>

<g fill="#ffffff" fill-opacity="1" stroke="#ffffff" stroke-opacity="1" stroke-width="1" stroke-linecap="square" stroke-linejoin="bevel" transform="matrix(1,0,0,1,0,0)"
>
<text fill="#ffffff" fill-opacity="1" stroke="none" xml:space="preserve" x="31.5" y="158" font-family="Arial" font-size="16" font-weight="700" font-style="normal" 
 >Goth</text>
</g>

<g fill="#ffffff" fill-opacity="1" stroke="#ffffff" stroke-opacity="1" stroke-width="1" stroke-linecap="square" stroke-linejoin="bevel" transform="matrix(1,0,0,1,0,0)"
>
<text fill="#ffffff" fill-opacity="1" stroke="none" xml:space="preserve" x="97" y="158" font-family="Arial" font-size="16" font-weight="400" font-style="normal" 
 >3</text>
</g>

<g fill="#ffffff" fill-opacity="1" stroke="#ffffff" stroke-opacity="1" stroke-width="1" stroke-linecap="square" stroke-linejoin="bevel" transform="matrix(1,0,0,1,0,0)"
>
<text fill="#ffffff" fill-opacity="1" stroke="none" xml:space="preserve" x="139" y="158" font-family="Arial" font-size="16" font-weight="400" font-style="normal" 
 >-6</text>
</g>

<g fill="#ffffff" fill-opacity="1" stroke="#ffffff" stroke-opacity="1" stroke-width="1" stroke-linecap="square" stroke-linejoin="bevel" transform="matrix(1,0,0,1,0,0)"
>
<text fill="#ffffff" fill-opacity="1" stroke="none" xml:space="preserve" x="177" y="158" font-family="Arial" font-size="16" font-weight="400" font-style="normal" 
 >6</text>
</g>

<g fill="#ffffff" fill-opacity="1" stroke="#ffffff" stroke-opacity="1" stroke-width="1" stroke-linecap="square" stroke-linejoin="bevel" transform="matrix(1,0,0,1,0,0)"
>
<text fill="#ffffff" fill-opacity="1" stroke="none" xml:space="preserve" x="217" y="158" font-family="Arial" font-size="16" font-weight="400" font-style="normal" 
 >3</text>
</g>

<g fill="#ffffff" fill-opacity="1" stroke="#ffffff" stroke-opacity="1" stroke-width="1" stroke-linecap="square" stroke-linejoin="bevel" transform="matrix(1,0,0,1,0,0)"
>
<text fill="#ffffff" fill-opacity="1" stroke="none" xml:space="preserve" x="254" y="158" font-family="Arial" font-size="16" font-weight="400" font-style="normal" 
 >-6</text>
</g>

<g fill="#000000" fill-opacity="1" stroke="#000000" stroke-opacity="1" stroke-width="1" stroke-linecap="square" stroke-linejoin="miter" stroke-miterlimit="2" transform="matrix(1,0,0,1,0,0)"
>
</g>

<g fill="#000000" fill-opacity="1" stroke="#000000" stroke-opacity="1" stroke-width="1" stroke-linecap="square" stroke-linejoin="miter" stroke-miterlimit="2" transform="matrix(1,0,0,1,0,0)"
>
</g>

<g fill="#000000" fill-opacity="1" stroke="#000000" stroke-opacity="1" stroke-width="1" stroke-linecap="square" stroke-linejoin="miter" stroke-miterlimit="2" transform="matrix(1,0,0,1,0,0)"
>
</g>
</g>
</svg>
